# xmcd
#
# Track frame offsets:
#   225
#   16953
#   29135
#   45709
#   60654
#   74360
#   90653
#   106891
#   122733
#   142125
#   156978
#   171221
#
# Disc length: 2497 seconds
#
# Revision: 0
# Processed by: cddbd v1.4PL0 Copyright (c) Steve Scherf et al.
# Submitted via: CD-Datenbank 4.*
#
DISCID=ac09be0c
DTITLE=Roy Black - Seine Erfolge
DYEAR=1900
DGENRE=Blues
TTITLE0=Ganz in weiß
TTITLE1=Fremde Erde
TTITLE2=Wer Gefühle zeigt
TTITLE3=Das Mädchen Carina
TTITLE4=Schenk' mir eine Nacht
TTITLE5=Ich danke dir
TTITLE6=Wie ein Schlag ins Gesicht
TTITLE7=Bleib' heut Nacht bei mir
TTITLE8=Maria Magdalena
TTITLE9=Und nun ist es doch gescheh'n
TTITLE10=Sag doch auf Wiedersehen
TTITLE11=Medley
EXTD=
EXTT0=
EXTT1=
EXTT2=
EXTT3=
EXTT4=
EXTT5=
EXTT6=
EXTT7=
EXTT8=
EXTT9=
EXTT10=
EXTT11=
PLAYORDER=
